# xmcd
#
# Track frame offsets:
#	150
#	24815
#	40677
#	59047
#	79917
#	98087
#	118285
#	137765
#	158757
#	177912
#	199587
#	218652
#	236210
#	254572
#	274375
#
# Disc length: 3940 seconds
#
# Revision: 4
# Processed by: cddbd v1.5.2PL0 Copyright (c) Steve Scherf et al.
# Submitted via: EasyCDDAExtractor 15.3.0.1
#
DISCID=d80f620f
DTITLE=Jon Secada - 30 Exitos Insuperables - CD 1
DYEAR=2003
DGENRE=Latin
TTITLE0=Otro Dia Mas Sin Verte
TTITLE1=Tu Mejor Amigo
TTITLE2=Cree En Nuestro Amor
TTITLE3=Angel (Spanish Version)
TTITLE4=Sentir
TTITLE5=Quiero Mas "Whipped"
TTITLE6=Tuyo
TTITLE7=Si Te Vas
TTITLE8=Suave
TTITLE9=Es Por Ti
TTITLE10=Si No Te Conociera
TTITLE11=Amandolo
TTITLE12=Como Olvidarte
TTITLE13=La Unica
TTITLE14=Hasta El Final
EXTD=YEAR: 2003
EXTT0=
EXTT1=
EXTT2=
EXTT3=
EXTT4=
EXTT5=
EXTT6=
EXTT7=
EXTT8=
EXTT9=
EXTT10=
EXTT11=
EXTT12=
EXTT13=
EXTT14=
PLAYORDER=
